<svg width="35" height="36" viewBox="0 0 35 36" fill="none" xmlns="http://www.w3.org/2000/svg">
<g clip-path="url(#clip0_607_958)">
<path d="M22.4613 30.6308V20.472H25.8635L26.3725 16.5229H22.4613V14.0029C22.4613 12.8595 22.7792 12.0793 24.4183 12.0793H26.5096V8.54726C25.4972 8.43984 24.4797 8.38775 23.4617 8.39122C20.4473 8.39122 18.3837 10.2316 18.3837 13.612V16.5229H14.9742V20.472H18.3837V30.6308H5.83333C5.44656 30.6308 5.07563 30.4772 4.80214 30.2037C4.52865 29.9302 4.375 29.5592 4.375 29.1725V5.83913C4.375 5.45236 4.52865 5.08142 4.80214 4.80793C5.07563 4.53444 5.44656 4.3808 5.83333 4.3808H29.1667C29.5534 4.3808 29.9244 4.53444 30.1979 4.80793C30.4714 5.08142 30.625 5.45236 30.625 5.83913V29.1725C30.625 29.5592 30.4714 29.9302 30.1979 30.2037C29.9244 30.4772 29.5534 30.6308 29.1667 30.6308H22.4613Z" fill="#0F1483"/>
</g>
<defs>
<clipPath id="clip0_607_958">
<rect width="35" height="35" fill="white" transform="translate(0 0.00579834)"/>
</clipPath>
</defs>
</svg>
