<svg width="52" height="52" viewBox="0 0 52 52" fill="none" xmlns="http://www.w3.org/2000/svg">
<g clip-path="url(#clip0_607_1576)">
<path d="M48.75 29.25H44.3828C45.1276 27.1172 45.5 24.9505 45.5 22.75H48.75C49.6302 22.75 50.3919 23.0716 51.0352 23.7148C51.6784 24.3581 52 25.1283 52 26.0254C52 26.9225 51.6784 27.6842 51.0352 28.3105C50.3919 28.9368 49.6302 29.25 48.75 29.25ZM47.125 17.418L45.043 18.6367C44.6029 16.5039 43.7904 14.4896 42.6055 12.5938L43.9258 11.832C44.7044 11.3581 45.5169 11.2396 46.3633 11.4766C47.2096 11.7135 47.8613 12.2214 48.3184 13C48.7754 13.7786 48.8854 14.5996 48.6484 15.4629C48.4115 16.3262 47.9036 16.9779 47.125 17.418ZM39.7109 8.88672C38.1875 7.36328 36.4102 6.1276 34.3789 5.17969L34.582 4.875C35.0221 4.09635 35.6738 3.58854 36.5371 3.35156C37.4004 3.11458 38.2214 3.22461 39 3.68164C39.7786 4.13867 40.2865 4.79036 40.5234 5.63672C40.7604 6.48307 40.6419 7.29557 40.168 8.07422L39.7109 8.88672ZM40.168 43.9258C40.6419 44.7044 40.7604 45.5169 40.5234 46.3633C40.2865 47.2096 39.7786 47.8613 39 48.3184C38.2214 48.7754 37.4004 48.8854 36.5371 48.6484C35.6738 48.4115 35.0221 47.9036 34.582 47.125L31.2812 41.4883C33.4141 40.9128 35.3776 39.9987 37.1719 38.7461L40.168 43.9258ZM25.9746 52C25.0775 52 24.3158 51.6868 23.6895 51.0605C23.0632 50.4342 22.75 49.6641 22.75 48.75V41.8438C23.8333 42.1146 24.9167 42.25 26 42.25C27.0156 42.25 28.099 42.1484 29.25 41.9453V48.75C29.25 49.6641 28.9284 50.4342 28.2852 51.0605C27.6419 51.6868 26.8717 52 25.9746 52ZM26 19.5C24.8828 19.5 24.0026 19.043 23.3594 18.1289C20.2786 18.6029 17.7819 19.8132 15.8691 21.7598C13.9564 23.7064 13 26.2031 13 29.25H3.25C2.36979 29.25 1.60807 28.9368 0.964844 28.3105C0.321615 27.6842 0 26.9225 0 26.0254C0 25.1283 0.321615 24.3581 0.964844 23.7148C1.60807 23.0716 2.36979 22.75 3.25 22.75H13.9648L4.875 17.418C4.09635 16.9779 3.58854 16.3262 3.35156 15.4629C3.11458 14.5996 3.22461 13.7786 3.68164 13C4.13867 12.2214 4.79036 11.7135 5.63672 11.4766C6.48307 11.2396 7.29557 11.3581 8.07422 11.832L17.0117 17.0117L11.832 8.07422C11.3581 7.29557 11.2396 6.48307 11.4766 5.63672C11.7135 4.79036 12.2214 4.13867 13 3.68164C13.7786 3.22461 14.5996 3.11458 15.4629 3.35156C16.3262 3.58854 16.9779 4.09635 17.418 4.875L22.75 13.9648V3.25C22.75 2.36979 23.0632 1.60807 23.6895 0.964844C24.3158 0.321615 25.0859 0 26 0C26.9141 0 27.6842 0.321615 28.3105 0.964844C28.9368 1.60807 29.25 2.36979 29.25 3.25V16.25C29.25 17.1641 28.9284 17.9342 28.2852 18.5605C27.6419 19.1868 26.8802 19.5 26 19.5ZM4.875 34.582L13.0508 29.8086C13.1185 32.1107 13.7617 34.2266 14.9805 36.1562L8.07422 40.168C7.29557 40.6419 6.48307 40.7604 5.63672 40.5234C4.79036 40.2865 4.13867 39.7786 3.68164 39C3.22461 38.2214 3.11458 37.4004 3.35156 36.5371C3.58854 35.6738 4.09635 35.0221 4.875 34.582ZM15.7422 37.1719C17.1302 39 18.8398 40.3372 20.8711 41.1836L17.418 47.125C16.9779 47.9036 16.3262 48.4115 15.4629 48.6484C14.5996 48.8854 13.7786 48.7754 13 48.3184C12.2214 47.8613 11.7135 47.2096 11.4766 46.3633C11.2396 45.5169 11.3581 44.7044 11.832 43.9258L15.7422 37.1719ZM43.0625 32.1953L47.125 34.582C47.9036 35.0221 48.4115 35.6738 48.6484 36.5371C48.8854 37.4004 48.7754 38.2214 48.3184 39C47.8613 39.7786 47.2096 40.2865 46.3633 40.5234C45.5169 40.7604 44.7044 40.6419 43.9258 40.168L38.9492 37.2734C40.6419 35.7839 42.013 34.0911 43.0625 32.1953Z" fill="black"/>
</g>
<defs>
<clipPath id="clip0_607_1576">
<rect width="52" height="52" fill="white"/>
</clipPath>
</defs>
</svg>
